<svg xmlns="http://www.w3.org/2000/svg" viewBox="0 0 180 29">
  <path fill="#000" d="M25.9,14.6c0,1.2-0.2,2.3-0.7,3.4c-0.4,1-1.1,1.9-1.8,2.7c-0.8,0.8-1.7,1.4-2.7,1.8 c-1.1,0.5-2.2,0.7-3.4,0.7H0V6h17.3c1.2,0,2.3,0.2,3.4,0.7c1,0.4,1.9,1.1,2.7,1.8c0.8,0.8,1.4,1.7,1.8,2.8 C25.7,12.4,25.9,13.5,25.9,14.6z M17.3,6.6c-1.1,0-2.1,0.2-3.1,0.6c-1,0.4-1.8,1-2.6,1.7c-0.7,0.7-1.3,1.6-1.7,2.6 c-0.4,1-0.6,2-0.6,3.1c0,1.1,0.2,2.1,0.6,3.1c0.4,1,1,1.8,1.7,2.6c0.7,0.7,1.6,1.3,2.6,1.7c1,0.4,2,0.6,3.1,0.6V6.6z M34.5,6h8.6 v2.2h-6.5v5.4h5.4v2.2h-5.4v7.6h-2.2V6z M50.7,10.4h2.2v10.8c0,0.3-0.1,0.6-0.2,0.8c-0.1,0.3-0.3,0.5-0.5,0.7 c-0.2,0.2-0.4,0.4-0.7,0.5c-0.3,0.1-0.5,0.2-0.8,0.2h-4.4c-0.3,0-0.5-0.1-0.8-0.2c-0.2-0.1-0.5-0.3-0.7-0.5 c-0.2-0.2-0.4-0.4-0.5-0.7c-0.1-0.3-0.2-0.5-0.2-0.8V10.4h2.1v9.7c0,0.3,0.1,0.6,0.4,0.8c0.2,0.2,0.4,0.3,0.7,0.3h2.1 c0.3,0,0.5-0.1,0.7-0.3c0.2-0.2,0.3-0.5,0.3-0.8V10.4z M56.7,10.4h3.2v2.2h-3.2v7.6c0,0.3,0.1,0.5,0.3,0.7c0.2,0.2,0.5,0.3,0.8,0.3 h1.6v2.2h-2.7c-0.4,0-0.7-0.1-1-0.3c-0.2-0.1-0.4-0.3-0.5-0.4c-0.2-0.1-0.3-0.3-0.3-0.5c-0.1-0.3-0.2-0.6-0.2-1v-13h2.2V10.4z M68,10.4h2.2v10.8c0,0.3-0.1,0.6-0.2,0.8c-0.1,0.3-0.3,0.5-0.5,0.7c-0.2,0.2-0.4,0.4-0.7,0.5c-0.3,0.1-0.5,0.2-0.8,0.2h-4.4 c-0.3,0-0.5-0.1-0.8-0.2c-0.2-0.1-0.5-0.3-0.7-0.5c-0.2-0.2-0.3-0.4-0.5-0.7c-0.1-0.3-0.2-0.5-0.2-0.8V10.4h2.1v9.7 c0,0.3,0.1,0.6,0.4,0.8c0.2,0.2,0.4,0.3,0.7,0.3h2.1c0.3,0,0.5-0.1,0.7-0.3c0.2-0.2,0.3-0.5,0.3-0.8V10.4z M71.8,12.5 c0-0.3,0.1-0.6,0.2-0.8c0.1-0.3,0.3-0.5,0.5-0.7c0.2-0.2,0.4-0.4,0.7-0.5c0.3-0.1,0.5-0.2,0.8-0.2h3.4v2.2H75 c-0.3,0-0.5,0.1-0.7,0.3c-0.2,0.2-0.3,0.5-0.3,0.8v9.7h-2.2V12.5z M84.3,10.4c0.3,0,0.5,0.1,0.8,0.2c0.2,0.1,0.5,0.3,0.7,0.5 c0.2,0.2,0.3,0.4,0.5,0.7c0.1,0.3,0.2,0.5,0.2,0.8v5.4h-5.9v2.2c0,0.3,0.1,0.6,0.3,0.8c0.2,0.2,0.5,0.3,0.7,0.3h4.3v2.2h-5.5 c-0.3,0-0.6-0.1-0.8-0.2c-0.2-0.1-0.5-0.3-0.7-0.5c-0.2-0.2-0.3-0.4-0.4-0.7c-0.1-0.3-0.2-0.5-0.2-0.8v-8.6c0-0.3,0.1-0.6,0.2-0.8 c0.1-0.3,0.3-0.5,0.4-0.7c0.2-0.2,0.4-0.4,0.7-0.5c0.3-0.1,0.5-0.2,0.8-0.2H84.3z M84.2,15.8v-2.2c0-0.3-0.1-0.6-0.3-0.8 c-0.2-0.2-0.4-0.3-0.7-0.3h-1.6c-0.3,0-0.5,0.1-0.8,0.3c-0.2,0.2-0.3,0.5-0.3,0.8v2.2H84.2z M101.4,6c0.3,0,0.6,0.1,0.9,0.2 c0.3,0.1,0.5,0.3,0.7,0.5c0.2,0.2,0.3,0.4,0.4,0.7c0.1,0.3,0.2,0.5,0.2,0.8v6.5c0,0.3-0.1,0.6-0.2,0.9c-0.1,0.3-0.3,0.5-0.5,0.7 c-0.2,0.2-0.4,0.3-0.7,0.5c-0.3,0.1-0.5,0.2-0.8,0.2h-4.3v6.5H95V6H101.4z M101.4,9.3c0-0.3-0.1-0.5-0.3-0.7 c-0.2-0.2-0.5-0.3-0.8-0.3h-3.2v6.5h3.2c0.3,0,0.6-0.1,0.8-0.3c0.2-0.2,0.3-0.5,0.3-0.8V9.3z M105.3,12.5c0-0.3,0.1-0.6,0.2-0.8 c0.1-0.3,0.3-0.5,0.5-0.7c0.2-0.2,0.4-0.4,0.7-0.5c0.3-0.1,0.5-0.2,0.8-0.2h3.4v2.2h-2.2c-0.3,0-0.6,0.1-0.8,0.3 c-0.2,0.2-0.3,0.5-0.3,0.8v9.7h-2.2V12.5z M118.3,10.4c0.3,0,0.5,0.1,0.8,0.2c0.2,0.1,0.5,0.3,0.7,0.5c0.2,0.2,0.3,0.4,0.5,0.7 c0.1,0.3,0.2,0.5,0.2,0.8v8.6c0,0.3-0.1,0.6-0.2,0.8c-0.1,0.3-0.3,0.5-0.5,0.7c-0.2,0.2-0.4,0.4-0.7,0.5c-0.3,0.1-0.5,0.2-0.8,0.2 h-4.4c-0.3,0-0.5-0.1-0.8-0.2c-0.2-0.1-0.5-0.3-0.7-0.5c-0.2-0.2-0.3-0.4-0.5-0.7c-0.1-0.3-0.2-0.5-0.2-0.8v-8.6 c0-0.3,0.1-0.6,0.2-0.8c0.1-0.3,0.3-0.5,0.5-0.7c0.2-0.2,0.4-0.4,0.7-0.5c0.3-0.1,0.5-0.2,0.8-0.2H118.3z M118.2,13.6 c0-0.3-0.1-0.6-0.3-0.8c-0.2-0.2-0.5-0.3-0.7-0.3H115c-0.3,0-0.5,0.1-0.7,0.3c-0.2,0.2-0.4,0.5-0.4,0.8v6.5c0,0.3,0.1,0.6,0.4,0.8 c0.2,0.2,0.4,0.3,0.7,0.3h2.1c0.3,0,0.5-0.1,0.7-0.3c0.2-0.2,0.3-0.5,0.3-0.8V13.6z M128.9,23.3h-4.8c-0.3,0-0.5-0.1-0.8-0.2 c-0.2-0.1-0.5-0.3-0.7-0.5c-0.2-0.2-0.3-0.4-0.5-0.7c-0.1-0.3-0.2-0.5-0.2-0.8v-8.6c0-0.3,0.1-0.6,0.2-0.8c0.1-0.3,0.3-0.5,0.5-0.7 c0.2-0.2,0.4-0.4,0.7-0.5c0.3-0.1,0.5-0.2,0.8-0.2h4.8v2.2h-3.7c-0.3,0-0.5,0.1-0.7,0.3c-0.2,0.2-0.4,0.5-0.4,0.8v6.5 c0,0.3,0.1,0.6,0.4,0.8c0.2,0.2,0.4,0.3,0.7,0.3h3.7V23.3z M136.4,10.4c0.3,0,0.5,0.1,0.8,0.2c0.2,0.1,0.5,0.3,0.7,0.5 c0.2,0.2,0.3,0.4,0.5,0.7c0.1,0.3,0.2,0.5,0.2,0.8v5.4h-5.9v2.1c0,0.3,0.1,0.6,0.3,0.8c0.2,0.2,0.5,0.3,0.8,0.3h4.3v2.2h-5.4 c-0.3,0-0.5-0.1-0.8-0.2c-0.2-0.1-0.5-0.3-0.7-0.5c-0.2-0.2-0.3-0.4-0.5-0.7c-0.1-0.3-0.2-0.5-0.2-0.8v-8.6c0-0.3,0.1-0.6,0.2-0.8 c0.1-0.3,0.3-0.5,0.5-0.7c0.2-0.2,0.4-0.4,0.7-0.5c0.3-0.1,0.5-0.2,0.8-0.2H136.4z M136.4,15.8v-2.1c0-0.3-0.1-0.6-0.3-0.8 c-0.2-0.2-0.4-0.3-0.7-0.3h-1.6c-0.3,0-0.6,0.1-0.8,0.3c-0.2,0.2-0.3,0.5-0.3,0.8v2.1H136.4z M145.1,15.7c0.3,0,0.6,0.1,0.8,0.2 c0.3,0.1,0.5,0.3,0.7,0.5c0.2,0.2,0.4,0.4,0.5,0.7c0.1,0.3,0.2,0.5,0.2,0.8v3.4c0,0.3-0.1,0.5-0.2,0.8c-0.1,0.2-0.3,0.5-0.5,0.7 c-0.2,0.2-0.4,0.3-0.7,0.5c-0.3,0.1-0.5,0.2-0.8,0.2h-4.4v-2.2h3.3c0.3,0,0.6-0.1,0.8-0.3c0.2-0.2,0.3-0.4,0.3-0.7V19 c0-0.3-0.1-0.6-0.3-0.8c-0.2-0.2-0.5-0.3-0.8-0.3h-1.7c-0.3,0-0.6-0.1-0.8-0.2c-0.3-0.1-0.5-0.2-0.7-0.4c-0.2-0.2-0.4-0.4-0.5-0.6 c-0.1-0.3-0.2-0.5-0.2-0.8v-3.4c0-0.3,0.1-0.5,0.2-0.8c0.1-0.2,0.3-0.5,0.5-0.7c0.2-0.2,0.4-0.3,0.7-0.5c0.3-0.1,0.5-0.2,0.8-0.2 h4.4v2.2h-3.3c-0.3,0-0.6,0.1-0.8,0.3c-0.2,0.2-0.3,0.4-0.3,0.7v1.1c0,0.3,0.1,0.5,0.3,0.7c0.2,0.2,0.5,0.3,0.8,0.3H145.1z M153.1,15.7c0.3,0,0.6,0.1,0.8,0.2c0.3,0.1,0.5,0.3,0.7,0.5c0.2,0.2,0.4,0.4,0.5,0.7c0.1,0.3,0.2,0.5,0.2,0.8v3.4 c0,0.3-0.1,0.5-0.2,0.8c-0.1,0.2-0.3,0.5-0.5,0.7c-0.2,0.2-0.4,0.3-0.7,0.5c-0.3,0.1-0.5,0.2-0.8,0.2h-4.4v-2.2h3.3 c0.3,0,0.6-0.1,0.8-0.3c0.2-0.2,0.3-0.4,0.3-0.7V19c0-0.3-0.1-0.6-0.3-0.8c-0.2-0.2-0.5-0.3-0.8-0.3h-1.7c-0.3,0-0.5-0.1-0.8-0.2 c-0.3-0.1-0.5-0.2-0.7-0.4c-0.2-0.2-0.4-0.4-0.5-0.6c-0.1-0.3-0.2-0.5-0.2-0.8v-3.4c0-0.3,0.1-0.5,0.2-0.8c0.1-0.2,0.3-0.5,0.5-0.7 c0.2-0.2,0.4-0.3,0.7-0.5c0.3-0.1,0.5-0.2,0.8-0.2h4.4v2.2h-3.3c-0.4,0-0.6,0.1-0.8,0.3c-0.2,0.2-0.3,0.4-0.3,0.7v1.1 c0,0.3,0.1,0.5,0.3,0.7c0.2,0.2,0.5,0.3,0.8,0.3H153.1z M156.7,6h2.6v2.6h-2.6V6z M159.1,10.4h-2.2v13h2.2V10.4z M167.7,23.3v-9.7 c0-0.3-0.1-0.6-0.3-0.8c-0.2-0.2-0.5-0.3-0.7-0.3h-2.2c-0.2,0-0.5,0.1-0.7,0.3c-0.2,0.2-0.4,0.5-0.4,0.8v9.7h-2.1v-13h6.5 c0.3,0,0.6,0.1,0.8,0.2c0.2,0.1,0.5,0.3,0.7,0.5c0.2,0.2,0.3,0.4,0.4,0.7c0.1,0.3,0.2,0.5,0.2,0.8v10.8H167.7z M177.9,10.3 c0.3,0,0.5,0.1,0.8,0.2c0.2,0.1,0.5,0.3,0.7,0.5c0.2,0.2,0.3,0.4,0.5,0.7c0.1,0.3,0.2,0.5,0.2,0.8v14c0,0.3-0.1,0.5-0.2,0.8 c-0.1,0.3-0.3,0.5-0.5,0.7c-0.2,0.2-0.4,0.4-0.7,0.5c-0.3,0.1-0.5,0.2-0.8,0.2h-4.3v-2.2h3.2c0.3,0,0.5-0.1,0.7-0.3 c0.2-0.2,0.3-0.5,0.3-0.8v-2.1h-4.3c-0.3,0-0.5-0.1-0.8-0.2c-0.2-0.1-0.5-0.3-0.7-0.5c-0.2-0.2-0.4-0.4-0.5-0.7 c-0.1-0.3-0.2-0.5-0.2-0.8v-8.6c0-0.3,0.1-0.6,0.2-0.8c0.1-0.3,0.3-0.5,0.4-0.7c0.2-0.2,0.4-0.4,0.7-0.5c0.3-0.1,0.5-0.2,0.8-0.2 H177.9z M177.8,13.6c0-0.3-0.1-0.6-0.3-0.8c-0.2-0.2-0.4-0.3-0.7-0.3h-2.1c-0.3,0-0.6,0.1-0.8,0.3c-0.2,0.2-0.3,0.5-0.3,0.8v6.4 c0,0.3,0.1,0.6,0.3,0.8c0.2,0.2,0.5,0.3,0.8,0.3h2.1c0.3,0,0.5-0.1,0.7-0.3c0.2-0.2,0.3-0.5,0.3-0.8V13.6z">
  </path>
</svg>